<svg width="33" height="34" viewBox="0 0 33 34" fill="none" xmlns="http://www.w3.org/2000/svg">
<path d="M32.3053 17.2078C32.3053 25.9907 25.1855 33.1105 16.4027 33.1105C7.61987 33.1105 0.5 25.9907 0.5 17.2078C0.5 8.42504 7.61987 1.30518 16.4027 1.30518C25.1855 1.30518 32.3053 8.42504 32.3053 17.2078Z" fill="#DE0E4A" stroke="#DE0E4A"/>
<path d="M17.2045 18.9277V25.9406H13.9071V18.9277H11.1677V16.0842H13.9071V15.0496C13.9071 11.2086 15.5494 9.18896 19.0244 9.18896C20.0898 9.18896 20.3561 9.35623 20.9395 9.49253V12.3051C20.2863 12.1936 20.1024 12.1317 19.4239 12.1317C18.6186 12.1317 18.1874 12.3547 17.7942 12.7945C17.4011 13.2344 17.2045 13.9964 17.2045 15.0867V16.0904H20.9395L19.9376 18.9339H17.2045V18.9277Z" fill="white"/>
</svg>
