<svg width="35" height="33" viewBox="0 0 35 33" fill="none" xmlns="http://www.w3.org/2000/svg">
<path d="M33.7677 16.4027C33.7677 25.1745 26.4849 32.3053 17.4763 32.3053C8.46772 32.3053 1.18494 25.1745 1.18494 16.4027C1.18494 7.63084 8.46772 0.5 17.4763 0.5C26.4849 0.5 33.7677 7.63084 33.7677 16.4027Z" stroke="white"/>
<path d="M18.2971 18.1226V25.1355H14.9215V18.1226H12.1172V15.279H14.9215V14.2444C14.9215 10.4034 16.6028 8.38379 20.1601 8.38379C21.2507 8.38379 21.5233 8.55106 22.1206 8.68735V11.4999C21.4519 11.3884 21.2637 11.3265 20.5691 11.3265C19.7447 11.3265 19.3033 11.5495 18.9008 11.9894C18.4983 12.4292 18.2971 13.1912 18.2971 14.2816V15.2852H22.1206L21.0949 18.1288H18.2971V18.1226Z" fill="white"/>
</svg>
