<svg width="33" height="34" viewBox="0 0 33 34" fill="none" xmlns="http://www.w3.org/2000/svg">
<path d="M32.3053 17.2078C32.3053 25.9907 25.1855 33.1105 16.4027 33.1105C7.61987 33.1105 0.5 25.9907 0.5 17.2078C0.5 8.42504 7.61987 1.30518 16.4027 1.30518C25.1855 1.30518 32.3053 8.42504 32.3053 17.2078Z" fill="#DE0E4A" stroke="#DE0E4A"/>
<g clip-path="url(#clip0_418_401)">
<path d="M16.0541 11.8287C17.9191 11.8287 18.1399 11.8369 18.8734 11.8696C19.555 11.8996 19.9231 12.0141 20.1684 12.1095C20.4929 12.2349 20.7274 12.3876 20.97 12.6303C21.2154 12.8757 21.3654 13.1074 21.4908 13.4319C21.5862 13.6773 21.7007 14.0481 21.7307 14.727C21.7635 15.4631 21.7716 15.684 21.7716 17.5462C21.7716 19.4111 21.7635 19.632 21.7307 20.3654C21.7007 21.047 21.5862 21.4151 21.4908 21.6605C21.3654 21.9849 21.2127 22.2194 20.97 22.4621C20.7247 22.7075 20.4929 22.8574 20.1684 22.9828C19.9231 23.0783 19.5523 23.1928 18.8734 23.2228C18.1372 23.2555 17.9163 23.2637 16.0541 23.2637C14.1892 23.2637 13.9684 23.2555 13.2349 23.2228C12.5533 23.1928 12.1852 23.0783 11.9398 22.9828C11.6154 22.8574 11.3809 22.7047 11.1382 22.4621C10.8929 22.2167 10.7429 21.9849 10.6175 21.6605C10.5221 21.4151 10.4075 21.0443 10.3776 20.3654C10.3448 19.6292 10.3367 19.4084 10.3367 17.5462C10.3367 15.6812 10.3448 15.4604 10.3776 14.727C10.4075 14.0453 10.5221 13.6773 10.6175 13.4319C10.7429 13.1074 10.8956 12.8729 11.1382 12.6303C11.3836 12.3849 11.6154 12.2349 11.9398 12.1095C12.1852 12.0141 12.556 11.8996 13.2349 11.8696C13.9684 11.8369 14.1892 11.8287 16.0541 11.8287ZM16.0541 10.5718C14.1592 10.5718 13.922 10.58 13.1777 10.6127C12.4361 10.6454 11.9262 10.7654 11.4845 10.9371C11.0237 11.1171 10.6338 11.3543 10.2467 11.7442C9.85679 12.1313 9.61958 12.5212 9.43963 12.9793C9.26786 13.4237 9.1479 13.9308 9.11518 14.6724C9.08246 15.4195 9.07428 15.6567 9.07428 17.5516C9.07428 19.4466 9.08246 19.6838 9.11518 20.4281C9.1479 21.1697 9.26786 21.6796 9.43963 22.1213C9.61958 22.582 9.85679 22.9719 10.2467 23.3591C10.6338 23.7463 11.0237 23.9862 11.4818 24.1634C11.9262 24.3352 12.4333 24.4551 13.1749 24.4879C13.9193 24.5206 14.1565 24.5288 16.0514 24.5288C17.9463 24.5288 18.1835 24.5206 18.9279 24.4879C19.6695 24.4551 20.1794 24.3352 20.621 24.1634C21.0791 23.9862 21.469 23.7463 21.8562 23.3591C22.2433 22.9719 22.4832 22.582 22.6605 22.124C22.8322 21.6796 22.9522 21.1724 22.9849 20.4308C23.0176 19.6865 23.0258 19.4493 23.0258 17.5544C23.0258 15.6594 23.0176 15.4222 22.9849 14.6779C22.9522 13.9363 22.8322 13.4264 22.6605 12.9847C22.4887 12.5212 22.2515 12.1313 21.8616 11.7442C21.4744 11.357 21.0846 11.1171 20.6265 10.9399C20.1821 10.7681 19.6749 10.6481 18.9333 10.6154C18.1863 10.58 17.9491 10.5718 16.0541 10.5718Z" fill="white"/>
<path d="M16.0542 13.9663C14.0747 13.9663 12.4688 15.5722 12.4688 17.5517C12.4688 19.5311 14.0747 21.137 16.0542 21.137C18.0336 21.137 19.6395 19.5311 19.6395 17.5517C19.6395 15.5722 18.0336 13.9663 16.0542 13.9663ZM16.0542 19.8774C14.77 19.8774 13.7285 18.8358 13.7285 17.5517C13.7285 16.2675 14.77 15.226 16.0542 15.226C17.3384 15.226 18.3799 16.2675 18.3799 17.5517C18.3799 18.8358 17.3384 19.8774 16.0542 19.8774Z" fill="white"/>
<path d="M20.6183 13.8243C20.6183 14.2878 20.242 14.6614 19.7813 14.6614C19.3177 14.6614 18.9442 14.2851 18.9442 13.8243C18.9442 13.3608 19.3205 12.9873 19.7813 12.9873C20.242 12.9873 20.6183 13.3636 20.6183 13.8243Z" fill="white"/>
</g>
<defs>
<clipPath id="clip0_418_401">
<rect width="13.9597" height="13.9597" fill="white" transform="translate(9.07428 10.5718)"/>
</clipPath>
</defs>
</svg>
