<svg width="34" height="33" viewBox="0 0 34 33" fill="none" xmlns="http://www.w3.org/2000/svg">
<g clip-path="url(#clip0_466_332)">
<path d="M16.5887 11.0235C18.4979 11.0235 18.7239 11.0317 19.4748 11.0644C20.1725 11.0944 20.5493 11.2089 20.8005 11.3044C21.1327 11.4298 21.3727 11.5825 21.6211 11.8251C21.8723 12.0705 22.0258 12.3023 22.1542 12.6267C22.2519 12.8721 22.3692 13.2429 22.3999 13.9218C22.4333 14.658 22.4417 14.8788 22.4417 16.741C22.4417 18.6059 22.4333 18.8268 22.3999 19.5602C22.3692 20.2418 22.2519 20.6099 22.1542 20.8553C22.0258 21.1798 21.8695 21.4142 21.6211 21.6569C21.3699 21.9023 21.1327 22.0522 20.8005 22.1777C20.5493 22.2731 20.1697 22.3876 19.4748 22.4176C18.7212 22.4503 18.4951 22.4585 16.5887 22.4585C14.6796 22.4585 14.4535 22.4503 13.7027 22.4176C13.0049 22.3876 12.6281 22.2731 12.3769 22.1777C12.0448 22.0522 11.8048 21.8996 11.5564 21.6569C11.3052 21.4115 11.1516 21.1798 11.0233 20.8553C10.9256 20.6099 10.8083 20.2391 10.7776 19.5602C10.7441 18.8241 10.7358 18.6032 10.7358 16.741C10.7358 14.8761 10.7441 14.6552 10.7776 13.9218C10.8083 13.2402 10.9256 12.8721 11.0233 12.6267C11.1516 12.3023 11.3079 12.0678 11.5564 11.8251C11.8076 11.5797 12.0448 11.4298 12.3769 11.3044C12.6281 11.2089 13.0077 11.0944 13.7027 11.0644C14.4535 11.0317 14.6796 11.0235 16.5887 11.0235ZM16.5887 9.7666C14.6489 9.7666 14.4061 9.77478 13.6441 9.8075C12.8849 9.84022 12.363 9.96018 11.9108 10.132C11.4391 10.3119 11.04 10.5491 10.6437 10.939C10.2445 11.3262 10.0017 11.7161 9.81749 12.1741C9.64165 12.6185 9.51884 13.1257 9.48535 13.8673C9.45185 14.6143 9.44348 14.8515 9.44348 16.7465C9.44348 18.6414 9.45185 18.8786 9.48535 19.6229C9.51884 20.3645 9.64165 20.8744 9.81749 21.3161C10.0017 21.7769 10.2445 22.1667 10.6437 22.5539C11.04 22.9411 11.4391 23.181 11.908 23.3582C12.363 23.53 12.8821 23.65 13.6413 23.6827C14.4033 23.7154 14.6461 23.7236 16.586 23.7236C18.5258 23.7236 18.7686 23.7154 19.5306 23.6827C20.2898 23.65 20.8117 23.53 21.2639 23.3582C21.7328 23.181 22.1319 22.9411 22.5282 22.5539C22.9246 22.1667 23.1702 21.7769 23.3516 21.3188C23.5275 20.8744 23.6503 20.3673 23.6838 19.6256C23.7173 18.8813 23.7256 18.6441 23.7256 16.7492C23.7256 14.8543 23.7173 14.6171 23.6838 13.8727C23.6503 13.1311 23.5275 12.6213 23.3516 12.1796C23.1758 11.7161 22.933 11.3262 22.5338 10.939C22.1375 10.5518 21.7384 10.3119 21.2694 10.1347C20.8145 9.96291 20.2953 9.84294 19.5362 9.81023C18.7714 9.77478 18.5286 9.7666 16.5887 9.7666Z" fill="white"/>
<path d="M16.5888 13.1611C14.5624 13.1611 12.9185 14.767 12.9185 16.7465C12.9185 18.7259 14.5624 20.3318 16.5888 20.3318C18.6151 20.3318 20.2591 18.7259 20.2591 16.7465C20.2591 14.767 18.6151 13.1611 16.5888 13.1611ZM16.5888 19.0722C15.2742 19.0722 14.208 18.0307 14.208 16.7465C14.208 15.4623 15.2742 14.4208 16.5888 14.4208C17.9034 14.4208 18.9696 15.4623 18.9696 16.7465C18.9696 18.0307 17.9034 19.0722 16.5888 19.0722Z" fill="white"/>
<path d="M21.2611 13.0192C21.2611 13.4827 20.8759 13.8562 20.4042 13.8562C19.9297 13.8562 19.5474 13.4799 19.5474 13.0192C19.5474 12.5557 19.9325 12.1821 20.4042 12.1821C20.8759 12.1821 21.2611 12.5584 21.2611 13.0192Z" fill="white"/>
</g>
<path d="M33.2369 16.4027C33.2369 25.1745 25.9541 32.3053 16.9455 32.3053C7.93696 32.3053 0.654175 25.1745 0.654175 16.4027C0.654175 7.63084 7.93696 0.5 16.9455 0.5C25.9541 0.5 33.2369 7.63084 33.2369 16.4027Z" stroke="white"/>
<defs>
<clipPath id="clip0_466_332">
<rect width="14.2905" height="13.9597" fill="white" transform="translate(9.44348 9.7666)"/>
</clipPath>
</defs>
</svg>
