<svg width="35" height="33" viewBox="0 0 35 33" fill="none" xmlns="http://www.w3.org/2000/svg">
<path d="M33.5639 16.4027C33.5639 25.1745 26.2811 32.3053 17.2726 32.3053C8.26399 32.3053 0.981201 25.1745 0.981201 16.4027C0.981201 7.63084 8.26399 0.5 17.2726 0.5C26.2811 0.5 33.5639 7.63084 33.5639 16.4027Z" stroke="white"/>
<path d="M12.995 12.2666H10.0089V21.5685H12.995V12.2666Z" fill="white"/>
<path d="M21.0727 12.0634C20.9626 12.05 20.8456 12.0433 20.7287 12.0365C19.0568 11.9693 18.1142 12.9372 17.7839 13.3539C17.6945 13.4681 17.6532 13.5353 17.6532 13.5353V12.2919H14.7979V21.5939H17.6532H17.7839C17.7839 20.6462 17.7839 19.7052 17.7839 18.7576C17.7839 18.2468 17.7839 17.736 17.7839 17.2252C17.7839 16.5934 17.7357 15.9213 18.0591 15.3433C18.3343 14.8594 18.8297 14.6174 19.387 14.6174C21.0383 14.6174 21.0727 16.0759 21.0727 16.2103C21.0727 16.217 21.0727 16.2237 21.0727 16.2237V21.6342H24.0588V15.5651C24.0588 13.4883 22.9785 12.265 21.0727 12.0634Z" fill="white"/>
<path d="M11.4998 11.0686C12.4574 11.0686 13.2337 10.3103 13.2337 9.37486C13.2337 8.43945 12.4574 7.68115 11.4998 7.68115C10.5423 7.68115 9.76599 8.43945 9.76599 9.37486C9.76599 10.3103 10.5423 11.0686 11.4998 11.0686Z" fill="white"/>
</svg>
