<svg width="33" height="34" viewBox="0 0 33 34" fill="none" xmlns="http://www.w3.org/2000/svg">
<path d="M32.3053 17.2078C32.3053 25.9907 25.1855 33.1105 16.4027 33.1105C7.61987 33.1105 0.5 25.9907 0.5 17.2078C0.5 8.42504 7.61987 1.30518 16.4027 1.30518C25.1855 1.30518 32.3053 8.42504 32.3053 17.2078Z" fill="#DE0E4A" stroke="#DE0E4A"/>
<path d="M12.2241 13.0718H9.30719V22.3737H12.2241V13.0718Z" fill="white"/>
<path d="M20.1149 12.8686C20.0073 12.8552 19.8931 12.8484 19.7788 12.8417C18.1456 12.7745 17.2248 13.7423 16.9022 14.159C16.8149 14.2733 16.7745 14.3405 16.7745 14.3405V13.0971H13.9853V22.399H16.7745H16.9022C16.9022 21.4514 16.9022 20.5104 16.9022 19.5628C16.9022 19.052 16.9022 18.5412 16.9022 18.0304C16.9022 17.3986 16.8552 16.7265 17.1711 16.1485C17.4399 15.6645 17.9238 15.4226 18.4682 15.4226C20.0813 15.4226 20.1149 16.8811 20.1149 17.0155C20.1149 17.0222 20.1149 17.0289 20.1149 17.0289V22.4394H23.0318V16.3703C23.0318 14.2935 21.9766 13.0702 20.1149 12.8686Z" fill="white"/>
<path d="M10.7636 11.8737C11.699 11.8737 12.4573 11.1154 12.4573 10.18C12.4573 9.24462 11.699 8.48633 10.7636 8.48633C9.82818 8.48633 9.06989 9.24462 9.06989 10.18C9.06989 11.1154 9.82818 11.8737 10.7636 11.8737Z" fill="white"/>
</svg>
