<svg width="33" height="34" viewBox="0 0 33 34" fill="none" xmlns="http://www.w3.org/2000/svg">
<path d="M32.3053 17.2078C32.3053 25.9907 25.1855 33.1105 16.4027 33.1105C7.61987 33.1105 0.5 25.9907 0.5 17.2078C0.5 8.42504 7.61987 1.30518 16.4027 1.30518C25.1855 1.30518 32.3053 8.42504 32.3053 17.2078Z" fill="#DE0E4A" stroke="#DE0E4A"/>
<path d="M9 23.9597L10.0303 20.375C9.39454 19.3257 9.06046 18.1362 9.06107 16.9165C9.06291 13.1031 12.3212 10 16.3246 10C18.2673 10.0006 20.091 10.7213 21.4627 12.0288C22.8338 13.3364 23.5887 15.0744 23.5881 16.9229C23.5862 20.7368 20.3279 23.8399 16.3246 23.8399C15.1092 23.8393 13.9115 23.5491 12.8507 22.9977L9 23.9597ZM13.029 21.7453C14.0526 22.3241 15.0298 22.6708 16.3221 22.6713C19.6494 22.6713 22.3599 20.0923 22.3617 16.9217C22.3629 13.7447 19.6653 11.1691 16.327 11.168C12.9973 11.168 10.2887 13.747 10.2874 16.917C10.2868 18.2112 10.685 19.1803 11.3538 20.1941L10.7437 22.316L13.029 21.7453ZM19.9835 18.5672C19.9383 18.4951 19.8174 18.452 19.6354 18.3654C19.454 18.2787 18.5617 17.8605 18.395 17.8029C18.2288 17.7453 18.1079 17.7162 17.9864 17.8896C17.8654 18.0623 17.5173 18.452 17.4117 18.5672C17.306 18.6824 17.1997 18.6969 17.0184 18.6102C16.837 18.5236 16.2519 18.3415 15.5587 17.7523C15.0194 17.2939 14.6548 16.728 14.5492 16.5547C14.4435 16.3819 14.5382 16.2883 14.6285 16.2022C14.7104 16.1248 14.8099 16.0003 14.9009 15.8991C14.9932 15.7991 15.0231 15.727 15.0842 15.6112C15.1446 15.4961 15.1147 15.3948 15.0689 15.3082C15.0231 15.2221 14.6603 14.3711 14.5095 14.025C14.3617 13.6883 14.212 13.7336 14.1009 13.7284L13.7528 13.7226C13.6318 13.7226 13.4352 13.7656 13.269 13.939C13.1029 14.1123 12.6339 14.5299 12.6339 15.3809C12.6339 16.2318 13.2843 17.0537 13.3747 17.1689C13.4657 17.2841 14.6542 19.0302 16.4748 19.7788C16.9078 19.9568 17.2462 20.0632 17.5094 20.1429C17.9442 20.2743 18.34 20.2557 18.6527 20.2115C19.0014 20.1621 19.7264 19.7933 19.8778 19.3896C20.0293 18.9854 20.0293 18.6393 19.9835 18.5672Z" fill="white"/>
</svg>
