<svg width="35" height="33" viewBox="0 0 35 33" fill="none" xmlns="http://www.w3.org/2000/svg">
<path d="M10.0503 23.7263L11.105 20.1416C10.4542 19.0923 10.1122 17.9028 10.1128 16.6831C10.1147 12.8697 13.4502 9.7666 17.5484 9.7666C19.5372 9.76718 21.4041 10.4879 22.8083 11.7954C24.2119 13.103 24.9847 14.841 24.984 16.6895C24.9822 20.5034 21.6467 23.6065 17.5484 23.6065C16.3043 23.6059 15.0782 23.3157 13.9922 22.7643L10.0503 23.7263ZM14.1748 21.512C15.2226 22.0907 16.223 22.4374 17.5459 22.4379C20.9521 22.4379 23.7267 19.8589 23.7286 16.6883C23.7299 13.5113 20.9683 10.9357 17.5509 10.9346C14.1423 10.9346 11.3695 13.5136 11.3682 16.6836C11.3676 17.9778 11.7752 18.9469 12.4598 19.9607L11.8353 22.0826L14.1748 21.512ZM21.2941 18.3338C21.2478 18.2617 21.124 18.2186 20.9377 18.132C20.752 18.0453 19.8386 17.6271 19.6679 17.5695C19.4978 17.5119 19.374 17.4828 19.2496 17.6562C19.1258 17.8289 18.7695 18.2186 18.6613 18.3338C18.5531 18.449 18.4443 18.4635 18.2587 18.3768C18.073 18.2902 17.474 18.1081 16.7644 17.5189C16.2124 17.0605 15.8391 16.4946 15.7309 16.3213C15.6228 16.1485 15.7197 16.0549 15.8122 15.9688C15.896 15.8914 15.9979 15.7669 16.0911 15.6657C16.1855 15.5657 16.2161 15.4936 16.2786 15.3778C16.3405 15.2627 16.3099 15.1614 16.263 15.0748C16.2161 14.9887 15.8447 14.1377 15.6903 13.7917C15.539 13.4549 15.3858 13.5002 15.272 13.495L14.9157 13.4892C14.7919 13.4892 14.5906 13.5322 14.4205 13.7056C14.2504 13.8789 13.7703 14.2965 13.7703 15.1475C13.7703 15.9984 14.4361 16.8203 14.5287 16.9355C14.6218 17.0507 15.8385 18.7968 17.7022 19.5454C18.1455 19.7234 18.4919 19.8298 18.7613 19.9095C19.2065 20.0409 19.6116 20.0223 19.9317 19.9781C20.2887 19.9287 21.0308 19.5599 21.1859 19.1562C21.3409 18.752 21.3409 18.4059 21.2941 18.3338Z" fill="white"/>
<path d="M33.8435 16.4027C33.8435 25.1745 26.5607 32.3053 17.5521 32.3053C8.54353 32.3053 1.26074 25.1745 1.26074 16.4027C1.26074 7.63084 8.54353 0.5 17.5521 0.5C26.5607 0.5 33.8435 7.63084 33.8435 16.4027Z" stroke="white"/>
</svg>
