<svg width="34" height="33" viewBox="0 0 34 33" fill="none" xmlns="http://www.w3.org/2000/svg">
<g clip-path="url(#clip0_466_335)">
<path d="M20.195 11.4648H22.2037L17.8153 15.8745L22.9779 21.8749H18.9357L15.7696 18.2357L12.1469 21.8749H10.137L14.8308 17.1584L9.8783 11.4648H14.0232L16.8851 14.7913L20.195 11.4648ZM19.49 20.8179H20.6031L13.4184 12.4663H12.224L19.49 20.8179Z" fill="white"/>
</g>
<path d="M33.0758 16.4027C33.0758 25.1745 25.793 32.3053 16.7844 32.3053C7.77583 32.3053 0.493042 25.1745 0.493042 16.4027C0.493042 7.63084 7.77583 0.5 16.7844 0.5C25.793 0.5 33.0758 7.63084 33.0758 16.4027Z" stroke="white"/>
<defs>
<clipPath id="clip0_466_335">
<rect width="14.2905" height="12.5637" fill="white" transform="translate(9.28284 10.4683)"/>
</clipPath>
</defs>
</svg>
