<svg width="33" height="34" viewBox="0 0 33 34" fill="none" xmlns="http://www.w3.org/2000/svg">
<path d="M32.3053 17.2078C32.3053 25.9907 25.1855 33.1105 16.4027 33.1105C7.61987 33.1105 0.5 25.9907 0.5 17.2078C0.5 8.42504 7.61987 1.30518 16.4027 1.30518C25.1855 1.30518 32.3053 8.42504 32.3053 17.2078Z" fill="#DE0E4A" stroke="#DE0E4A"/>
<g clip-path="url(#clip0_418_423)">
<path d="M19.7343 12.27H21.6965L17.4097 16.6796L22.4528 22.6801H18.5041L15.4113 19.0408L11.8724 22.6801H9.90906L14.4943 17.9635L9.65637 12.27H13.7053L16.5009 15.5964L19.7343 12.27ZM19.0456 21.6231H20.1329L13.1145 13.2715H11.9478L19.0456 21.6231Z" fill="white"/>
</g>
<defs>
<clipPath id="clip0_418_423">
<rect width="13.9597" height="12.5637" fill="white" transform="translate(9.07471 11.2734)"/>
</clipPath>
</defs>
</svg>
